<?xml version="1.0" encoding="utf-8"?>
<!-- Generator: Adobe Illustrator 23.0.1, SVG Export Plug-In . SVG Version: 6.00 Build 0)  -->
<svg version="1.1" xmlns="http://www.w3.org/2000/svg" xmlns:xlink="http://www.w3.org/1999/xlink" x="0px" y="0px"
	 viewBox="0 0 1024 1024" style="enable-background:new 0 0 1024 1024;" xml:space="preserve">
<style type="text/css">
	.st0{display:none;}
	.st1{display:inline;}
	.st2{fill:#FFFFFF;}
	.st3{stroke:#000000;stroke-width:4;stroke-miterlimit:10;}
</style>
<g id="Layer_1" class="st0">
	<g class="st1">
		<path class="st2" d="M658.67,442.09c10.13,0,20.27,0,30.41,0c0.01,60.19,0.01,120.38,0.01,180.67c-165.02,0-330.05,0-495.43,0
			c0-60.15,0-120.41,0-180.67c9.22,0,18.76,0,28.29,0c0,59.51,0,119.01,0,178.52c1.19,0,2.39,0,3.58,0c0-59.51,0-119.01,0-178.52
			c1.19,0,2.39,0,3.58,0c0,59.51,0,119.01,0,178.52c1.19,0,2.39,0,3.58,0c0-59.51,0-119.01,0-178.52c1.19,0,2.39,0,3.58,0
			c0,59.46,0,118.91,0,178.3c4.12,0,7.18,0,10.74,0c0-59.86,0-119.08,0-178.3c1.19,0,2.39,0,3.58,0c0,59.48,0,118.96,0,178.2
			c9.2,2.45,7.06-3.74,7.07-7.57c0.1-56.88,0.08-113.75,0.09-170.63c2.39,0,4.77,0,7.16,0c0,59.51,0,119.01,0,178.52
			c1.19,0,2.39,0,3.58,0c0-59.51,0-119.01,0-178.52c3.58,0,7.16,0,10.74,0c0,59.51,0,119.01,0,178.52c1.19,0,2.39,0,3.58,0
			c0-59.51,0-119.01,0-178.52c1.19,0,2.39,0,3.58,0c0,59.48,0,118.96,0,178.2c9.2,2.45,7.06-3.74,7.07-7.57
			c0.1-56.88,0.08-113.75,0.09-170.63c2.39,0,4.77,0,7.16,0c0,59.48,0,118.96,0,178.2c9.2,2.45,7.06-3.74,7.07-7.57
			c0.1-56.88,0.08-113.75,0.09-170.63c2.39,0,4.77,0,7.16,0c0,59.51,0,119.01,0,178.52c1.19,0,2.39,0,3.58,0
			c0-59.51,0-119.01,0-178.52c2.39,0,4.77,0,7.16,0c0,59.48,0,118.96,0,178.2c9.2,2.45,7.06-3.74,7.07-7.57
			c0.1-56.88,0.08-113.75,0.09-170.63c1.19,0,2.39,0,3.58,0c0,59.51,0,119.01,0,178.52c1.19,0,2.39,0,3.58,0
			c0-59.51,0-119.01,0-178.52c4.77,0,9.55,0,14.32,0c0,59.51,0,119.01,0,178.52c1.19,0,2.39,0,3.58,0c0-59.51,0-119.01,0-178.52
			c1.19,0,2.39,0,3.58,0c0,59.51,0,119.01,0,178.52c1.19,0,2.39,0,3.58,0c0-59.51,0-119.01,0-178.52c3.58,0,7.16,0,10.74,0
			c0,59.48,0,118.96,0,178.2c9.2,2.45,7.06-3.74,7.07-7.57c0.1-56.88,0.08-113.75,0.09-170.63c1.19,0,2.39,0,3.58,0
			c0,59.51,0,119.01,0,178.52c1.19,0,2.39,0,3.58,0c0-59.51,0-119.01,0-178.52c1.19,0,2.39,0,3.58,0c0,59.51,0,119.01,0,178.52
			c1.19,0,2.39,0,3.58,0c0-59.51,0-119.01,0-178.52c1.19,0,2.39,0,3.58,0c0,59.51,0,119.01,0,178.52c1.19,0,2.39,0,3.58,0
			c0-59.51,0-119.01,0-178.52c2.39,0,4.77,0,7.16,0c0,59.46,0,118.91,0,178.3c4.12,0,7.18,0,10.74,0c0-59.86,0-119.08,0-178.3
			c1.19,0,2.39,0,3.58,0c0,59.51,0,119.01,0,178.52c1.19,0,2.39,0,3.58,0c0-59.51,0-119.01,0-178.52c1.19,0,2.39,0,3.58,0
			c0,59.51,0,119.01,0,178.52c1.19,0,2.39,0,3.58,0c0-59.51,0-119.01,0-178.52c4.77,0,9.55,0,14.32,0c0,59.51,0,119.01,0,178.52
			c1.19,0,2.39,0,3.58,0c0-59.51,0-119.01,0-178.52c3.58,0,7.16,0,10.74,0c0,59.51,0,119.01,0,178.52c1.19,0,2.39,0,3.58,0
			c0-59.51,0-119.01,0-178.52c2.39,0,4.77,0,7.16,0c0,59.51,0,119.01,0,178.52c1.19,0,2.39,0,3.58,0c0-59.51,0-119.01,0-178.52
			c2.39,0,4.77,0,7.16,0c0,59.51,0,119.01,0,178.52c1.19,0,2.39,0,3.58,0c0-59.51,0-119.01,0-178.52c3.58,0,7.16,0,10.74,0
			c0,59.46,0,118.91,0,178.3c4.12,0,7.18,0,10.74,0c0-59.86,0-119.08,0-178.3c1.19,0,2.39,0,3.58,0c0,59.51,0,119.01,0,178.52
			c1.19,0,2.39,0,3.58,0c0-59.51,0-119.01,0-178.52c2.39,0,4.77,0,7.16,0c0,59.51,0,119.01,0,178.52c1.19,0,2.39,0,3.58,0
			c0-59.51,0-119.01,0-178.52c2.39,0,4.77,0,7.16,0c0,59.51,0,119.01,0,178.52c1.19,0,2.39,0,3.58,0c0-59.51,0-119.01,0-178.52
			c3.58,0,7.16,0,10.74,0c0,59.51,0,119.01,0,178.52c1.19,0,2.39,0,3.58,0c0-59.51,0-119.01,0-178.52c1.19,0,2.39,0,3.58,0
			c0,59.51,0,119.01,0,178.52c1.19,0,2.39,0,3.58,0c0-59.51,0-119.01,0-178.52c8.35,0,16.71,0,25.06,0c0,59.51,0,119.01,0,178.52
			c1.19,0,2.39,0,3.58,0c0-59.51,0-119.01,0-178.52c1.19,0,2.39,0,3.58,0c0,59.48,0,118.96,0,178.2c9.2,2.45,7.06-3.74,7.07-7.57
			c0.1-56.88,0.08-113.75,0.09-170.63c3.58,0,7.16,0,10.74,0c0,59.48,0,118.96,0,178.2c9.2,2.45,7.06-3.74,7.07-7.57
			c0.1-56.88,0.08-113.75,0.09-170.63c1.19,0,2.39,0,3.58,0c0,59.51,0,119.01,0,178.52c1.19,0,2.39,0,3.58,0
			c0-59.51,0-119.01,0-178.52c1.19,0,2.39,0,3.58,0c0,59.51,0,119.01,0,178.52c1.19,0,2.39,0,3.58,0c0-59.51,0-119.01,0-178.52
			c1.19,0,2.39,0,3.58,0c0,59.48,0,118.96,0,178.2c9.2,2.45,7.06-3.74,7.07-7.57c0.1-56.88,0.08-113.75,0.09-170.63
			c2.39,0,4.77,0,7.16,0c0.01,45.56,0.02,91.12,0.03,136.68c0,12.21,0.1,24.42-0.04,36.63c-0.06,5.27,1.62,7.18,7.17,4.22
			C658.67,560.55,658.67,501.32,658.67,442.09z"/>
		<path d="M247,442.09c0,59.22,0,118.44,0,178.3c-3.56,0-6.62,0-10.74,0c0-59.38,0-118.84,0-178.3
			C239.84,442.09,243.42,442.09,247,442.09z"/>
		<path d="M511.9,442.09c0,59.22,0,118.44,0,178.3c-3.55,0-6.62,0-10.74,0c0-59.38,0-118.84,0-178.3
			C504.74,442.09,508.32,442.09,511.9,442.09z"/>
		<path d="M422.41,442.09c0,59.22,0,118.44,0,178.3c-3.56,0-6.62,0-10.74,0c0-59.38,0-118.84,0-178.3
			C415.25,442.09,418.83,442.09,422.41,442.09z"/>
		<path d="M658.67,442.09c0,59.23,0,118.46,0,177.53c-5.55,2.96-7.23,1.04-7.17-4.22c0.14-12.21,0.04-24.42,0.04-36.63
			c-0.01-45.56-0.02-91.12-0.03-136.68C653.89,442.09,656.28,442.09,658.67,442.09z"/>
		<path d="M257.74,442.09c-0.01,56.88,0.01,113.75-0.09,170.63c-0.01,3.83,2.13,10.02-7.07,7.57c0-59.24,0-118.72,0-178.2
			C252.97,442.09,255.35,442.09,257.74,442.09z"/>
		<path d="M644.35,442.09c-0.01,56.88,0.01,113.75-0.09,170.63c-0.01,3.83,2.13,10.02-7.07,7.57c0-59.24,0-118.72,0-178.2
			C639.57,442.09,641.96,442.09,644.35,442.09z"/>
		<path d="M619.29,442.09c-0.01,56.88,0.01,113.75-0.09,170.63c-0.01,3.83,2.13,10.02-7.07,7.57c0-59.24,0-118.72,0-178.2
			C614.52,442.09,616.9,442.09,619.29,442.09z"/>
		<path d="M293.54,442.09c-0.01,56.88,0.01,113.75-0.09,170.63c-0.01,3.83,2.13,10.02-7.07,7.57c0-59.24,0-118.72,0-178.2
			C288.76,442.09,291.15,442.09,293.54,442.09z"/>
		<path d="M307.86,442.09c-0.01,56.88,0.01,113.75-0.09,170.63c-0.01,3.83,2.13,10.02-7.07,7.57c0-59.24,0-118.72,0-178.2
			C303.08,442.09,305.47,442.09,307.86,442.09z"/>
		<path d="M601.39,442.09c-0.01,56.88,0.01,113.75-0.09,170.63c-0.01,3.83,2.13,10.02-7.07,7.57c0-59.24,0-118.72,0-178.2
			C596.62,442.09,599,442.09,601.39,442.09z"/>
		<path d="M332.91,442.09c-0.01,56.88,0.01,113.75-0.09,170.63c-0.01,3.83,2.13,10.02-7.07,7.57c0-59.24,0-118.72,0-178.2
			C328.14,442.09,330.53,442.09,332.91,442.09z"/>
		<path d="M383.03,442.09c-0.01,56.88,0.01,113.75-0.09,170.63c-0.01,3.83,2.13,10.02-7.07,7.57c0-59.24,0-118.72,0-178.2
			C378.26,442.09,380.64,442.09,383.03,442.09z"/>
		<ellipse cx="363.34" cy="531.35" rx="2.53" ry="126.23"/>
		<ellipse cx="388.4" cy="531.35" rx="2.53" ry="126.23"/>
		<ellipse cx="395.56" cy="531.35" rx="2.53" ry="126.23"/>
		<ellipse cx="402.72" cy="531.35" rx="2.53" ry="126.23"/>
		<ellipse cx="356.18" cy="531.35" rx="2.53" ry="126.23"/>
		<ellipse cx="223.73" cy="531.35" rx="2.53" ry="126.23"/>
		<ellipse cx="434.93" cy="531.35" rx="2.53" ry="126.23"/>
		<ellipse cx="452.83" cy="531.35" rx="2.53" ry="126.23"/>
		<ellipse cx="467.15" cy="531.35" rx="2.53" ry="126.23"/>
		<ellipse cx="477.89" cy="531.35" rx="2.53" ry="126.23"/>
		<ellipse cx="488.63" cy="531.35" rx="2.53" ry="126.23"/>
		<ellipse cx="338.28" cy="531.35" rx="2.53" ry="126.23"/>
		<ellipse cx="517.27" cy="531.35" rx="2.53" ry="126.23"/>
		<ellipse cx="528.01" cy="531.35" rx="2.53" ry="126.23"/>
		<ellipse cx="538.75" cy="531.35" rx="2.53" ry="126.23"/>
		<ellipse cx="553.07" cy="531.35" rx="2.53" ry="126.23"/>
		<ellipse cx="560.22" cy="531.35" rx="2.53" ry="126.23"/>
		<ellipse cx="588.86" cy="531.35" rx="2.53" ry="126.23"/>
		<ellipse cx="316.8" cy="531.35" rx="2.53" ry="126.23"/>
		<ellipse cx="281.01" cy="531.35" rx="2.53" ry="126.23"/>
		<ellipse cx="624.66" cy="531.35" rx="2.53" ry="126.23"/>
		<ellipse cx="631.82" cy="531.35" rx="2.53" ry="126.23"/>
		<ellipse cx="266.69" cy="531.35" rx="2.53" ry="126.23"/>
		<ellipse cx="230.89" cy="531.35" rx="2.53" ry="126.23"/>
		<ellipse cx="427.78" cy="531.35" rx="2.53" ry="126.23"/>
	</g>
</g>
<g id="Layer_2">
	<g id="YEah">
		<rect x="0.29" y="157.57" class="st3" width="14.21" height="708.86"/>
		<rect x="28.72" y="157.57" class="st3" width="14.21" height="708.86"/>
		<rect x="57.15" y="157.57" class="st3" width="42.64" height="707.98"/>
		<rect x="114" y="157.57" class="st3" width="28.43" height="707.6"/>
		<rect x="170.86" y="157.57" class="st3" width="14.21" height="708.86"/>
		<rect x="227.72" y="157.57" class="st3" width="14.21" height="708.86"/>
		<rect x="256.15" y="157.57" class="st3" width="28.43" height="707.6"/>
		<rect x="313" y="157.57" class="st3" width="28.43" height="707.6"/>
		<rect x="369.86" y="157.57" class="st3" width="14.21" height="708.86"/>
		<rect x="412.5" y="157.57" class="st3" width="28.43" height="707.6"/>
		<rect x="455.14" y="157.57" class="st3" width="14.21" height="708.86"/>
		<rect x="526.21" y="157.57" class="st3" width="14.21" height="708.86"/>
		<rect x="554.64" y="157.57" class="st3" width="14.21" height="708.86"/>
		<rect x="611.5" y="157.57" class="st3" width="28.43" height="707.6"/>
		<rect x="654.14" y="157.57" class="st3" width="14.21" height="708.86"/>
		<rect x="682.57" y="157.57" class="st3" width="14.21" height="708.86"/>
		<rect x="711" y="157.57" class="st3" width="14.21" height="708.86"/>
		<rect x="753.64" y="157.57" class="st3" width="42.64" height="707.98"/>
		<rect x="810.5" y="157.57" class="st3" width="14.21" height="708.86"/>
		<rect x="838.93" y="157.57" class="st3" width="14.21" height="708.86"/>
		<rect x="910" y="157.57" class="st3" width="14.21" height="708.86"/>
		<rect x="966.85" y="157.57" class="st3" width="14.21" height="708.86"/>
		<rect x="1009.5" y="157.57" class="st3" width="14.21" height="708.86"/>
	</g>
</g>
</svg>
